<svg width="35" height="35" viewBox="0 0 35 35" fill="none" xmlns="http://www.w3.org/2000/svg">
<path fill-rule="evenodd" clip-rule="evenodd" d="M0.011468 2.86536C0.011468 3.5873 0.0920068 4.31068 0.560401 4.88026C2.84277 7.65665 5.86689 5.36924 5.96859 4.14731H8.68322C8.89722 4.55192 9.10961 4.89 9.336 5.30426C9.50115 5.60664 9.89978 6.20458 9.96511 6.48493C9.54786 6.59638 8.56803 7.52369 8.14583 7.90814C7.71236 8.30292 7.77932 8.33572 7.45738 8.65245L6.58608 9.74167C6.47387 9.90955 6.33219 10.2552 6.11939 10.2552H0.011468V12.3666H5.13906C4.74581 13.1099 4.15879 15.2992 4.15879 16.4386H0.011468V18.55H4.15879C4.15879 19.6893 4.74581 21.8786 5.13906 22.6219H0.011468V24.7333H6.11939C6.33928 24.7333 6.89487 25.7615 7.38102 26.2616C7.59682 26.4836 7.64815 26.5495 7.84097 26.782L9.36093 28.1275C9.5488 28.2726 9.7026 28.4335 9.96511 28.5036C9.90097 28.779 8.8985 30.4343 8.68322 30.8412H5.96859C5.90284 30.051 4.54274 28.8052 3.25395 28.8052C1.92869 28.8052 0.88387 29.3681 0.311036 30.5375C-0.677161 32.5548 0.827773 34.9885 2.87684 34.9885C3.87221 34.9885 4.20005 34.9337 5.0108 34.3324C5.35759 34.0753 5.92649 33.4578 5.96859 32.9526H9.8897C10.4847 31.8281 11.1822 30.7547 11.7749 29.6347C11.9747 29.6813 13.1522 30.1771 14.1266 30.45C14.3267 30.5061 14.4141 30.455 14.4141 30.6904V34.9885H16.5254V30.8412C17.8391 30.9505 17.1724 30.9505 18.486 30.8412V34.9885H20.5974V30.6904C20.5974 30.3645 21.1278 30.4666 21.8807 30.1639C22.2483 30.0161 22.8705 29.72 23.2366 29.6347C23.8292 30.7547 24.5268 31.8281 25.1218 32.9526H29.0429C29.1123 33.7866 30.4825 34.9885 31.6821 34.9885H32.1346C33.5838 34.9885 35 33.5723 35 32.1232C35 31.1538 34.8162 30.3995 34.113 29.6922C33.0641 28.6372 31.2109 28.4794 30.0437 29.429C29.7216 29.6911 29.0833 30.3565 29.0429 30.8412H26.3283C26.1108 30.4303 25.1211 28.7835 25.0464 28.5036C25.8873 28.2791 27.9448 25.9664 28.4254 25.2469C28.5376 25.079 28.6793 24.7333 28.8921 24.7333H35V22.6219H29.8724C30.2657 21.8786 30.8527 19.6893 30.8527 18.55H35V16.4386H30.8527C30.8527 15.2992 30.2657 13.1099 29.8724 12.3666H35V10.2552H28.8921C28.6724 10.2552 28.3796 9.6409 28.0392 9.22297C27.3139 8.33238 27.0091 8.0171 26.1957 7.29611C25.9533 7.08117 25.3337 6.56162 25.0464 6.48493C25.1117 6.20458 25.5103 5.60664 25.6755 5.30426C25.9019 4.89 26.1142 4.55192 26.3283 4.14731H29.0429C29.0836 4.63629 29.688 5.24773 30.0033 5.52449C30.854 6.27068 32.1955 6.3799 33.2661 5.88204C34.5029 5.30691 35 4.19326 35 2.86536C35 1.4162 33.5838 0 32.1346 0C31.1393 0 30.8114 0.0548246 30.0007 0.656095C29.6539 0.913221 29.085 1.53071 29.0429 2.03591H25.1218C24.5268 3.1604 23.8292 4.23382 23.2366 5.35379C22.8853 5.27198 22.3059 4.99803 21.9339 4.84679C21.6726 4.74064 21.5453 4.70623 21.2504 4.62545C20.7507 4.48847 20.5974 4.56567 20.5974 4.29812V0H18.486V4.14731C17.1724 4.03801 17.8391 4.03801 16.5254 4.14731V0H14.4141V4.29812C14.4141 4.57984 14.1083 4.53142 13.8195 4.60845C12.9732 4.83398 12.2768 5.23688 11.7749 5.35379C11.1822 4.23382 10.4847 3.1604 9.8897 2.03591H5.96859C5.89917 1.20194 4.52899 0 3.32935 0H2.87684C1.42768 0 0.011468 1.4162 0.011468 2.86536Z" fill="#AB84BB"/>
</svg>
