<svg width="35" height="36" viewBox="0 0 35 36" fill="none" xmlns="http://www.w3.org/2000/svg">
<path fill-rule="evenodd" clip-rule="evenodd" d="M0 19.7333H4.32014C4.95712 19.7333 6.07746 18.1139 6.07746 18.0492C6.07746 17.823 5.63809 17.593 5.63809 16.5116C5.63809 13.6641 9.86301 13.1212 10.5716 15.8982C10.7131 16.4528 10.705 16.9933 10.495 17.4877C10.0759 18.474 9.29174 19.0743 8.05439 19.0743C7.60819 19.0743 7.38455 18.9374 7.02935 18.8547C6.61231 19.4774 5.8099 20.4547 5.12698 20.7599C4.28836 21.1346 1.1935 20.9781 0 20.9781V23.5409H10.5439C10.8154 23.5409 10.7345 23.321 10.985 22.8836C12.2727 20.6355 15.5963 21.6954 15.5963 23.9802C15.5963 24.7142 15.4198 25.3544 14.9131 25.8597C13.3409 27.4275 10.8866 26.1903 10.7636 24.7124H0V27.2751H4.24691C5.01406 27.2751 5.51545 27.6252 5.91397 28.0244C6.13801 28.2488 6.2838 28.4408 6.48484 28.6983C6.7058 28.9812 6.83387 29.1067 7.02935 29.3986C8.91803 28.4924 10.6171 30.0659 10.6171 31.3756C10.6171 32.2036 10.5829 32.6896 9.90472 33.3723C8.11729 35.1716 4.94633 33.4149 5.77342 30.8519C5.86959 30.554 6.00678 30.4341 6.07746 30.1308C5.82848 29.7589 5.52115 29.4513 5.23139 29.0731C4.9352 28.6863 4.60125 28.4467 3.95401 28.4467H0V33.6454C0 34.8327 1.15588 35.9886 2.34314 35.9886H33.2427C33.4466 35.9886 33.7552 35.6799 33.7552 35.476V27.8609C32.5523 27.8609 30.3038 27.9875 29.3287 27.6012C26.7881 26.5948 26.0687 23.5412 27.9428 21.5359L28.1667 21.3206C28.7993 20.7439 29.5967 20.3923 30.5334 20.3923H33.7552V12.8505C33.7552 12.1048 32.9691 12.191 32.2176 12.1915H3.51471C1.6104 12.1915 1.43779 12.2024 0 11.2396V19.7333Z" fill="#AB84BB"/>
<path fill-rule="evenodd" clip-rule="evenodd" d="M15.0103 9.26262L15.0835 11.0199H28.6295C29.1352 8.84941 28.4041 6.76565 27.0413 5.13956C25.9185 3.79968 24.0794 2.81909 22.2592 2.81909C20.9028 2.81909 20.115 2.86208 18.8907 3.47773C16.7286 4.56501 15.0103 6.84243 15.0103 9.26262Z" fill="#AB84BB"/>
<path fill-rule="evenodd" clip-rule="evenodd" d="M5.63798 7.43205C5.63798 8.87447 5.60908 9.11648 6.12918 10.4555C6.21985 10.6889 6.26425 11.0199 6.51665 11.0199H13.8388C13.6863 8.75591 13.7847 7.76218 14.8628 5.67366C15.4054 4.62253 16.3957 3.68016 17.3535 3.03875C16.6494 1.98735 14.3843 0.988525 12.8869 0.988525C11.5308 0.988525 10.7426 1.03151 9.51842 1.64717C8.01271 2.40445 7.0505 3.37002 6.29663 4.86897C5.98347 5.49173 5.63798 6.50511 5.63798 7.43205Z" fill="#AB84BB"/>
<path fill-rule="evenodd" clip-rule="evenodd" d="M28.1172 23.9801C28.1172 25.5385 29.2216 26.6161 30.4603 26.6161H34.4143C34.7685 26.6161 35.0001 26.3845 35.0001 26.0304V22.2228C35.0001 21.7733 34.6515 21.5638 34.1946 21.5638H30.8264C29.385 21.5638 28.1172 22.568 28.1172 23.9801Z" fill="#AB84BB"/>
<path fill-rule="evenodd" clip-rule="evenodd" d="M0 8.38394C0 9.53929 0.618403 10.3934 1.49337 10.7714C2.33193 11.1337 3.89767 11.0199 4.97912 11.0199C4.95705 10.7553 4.8682 10.5811 4.78619 10.3342C4.08772 8.23246 4.48993 7.44628 4.61298 5.96765C3.43712 5.96765 2.18877 5.84406 1.36985 6.2391C0.711144 6.55689 0 7.42327 0 8.38394Z" fill="#AB84BB"/>
<path fill-rule="evenodd" clip-rule="evenodd" d="M29.9475 9.33586L29.8743 11.0199H33.1693C33.1693 5.75825 33.5853 5.96714 31.5584 5.96767C30.7285 5.96787 29.8987 5.96767 29.0688 5.96767C29.1799 6.44432 29.9475 7.58839 29.9475 9.33586Z" fill="#AB84BB"/>
<path fill-rule="evenodd" clip-rule="evenodd" d="M6.88281 16.4384V16.8044C6.88281 17.3416 7.58591 17.9028 8.12754 17.9028C8.66916 17.9028 9.37234 17.3416 9.37234 16.8044V16.4384C9.37234 15.0188 6.88281 15.0188 6.88281 16.4384Z" fill="#AB84BB"/>
<path fill-rule="evenodd" clip-rule="evenodd" d="M6.88281 31.5219C6.88281 33.482 9.37234 33.0363 9.37234 31.8148C9.37234 31.3649 9.38454 31.0871 9.06179 30.7341C8.60063 30.2298 7.71439 30.2216 7.22889 30.6965C7.03932 30.882 6.88281 31.1678 6.88281 31.5219Z" fill="#AB84BB"/>
<path fill-rule="evenodd" clip-rule="evenodd" d="M11.8618 23.9802C11.8618 25.649 13.7927 25.7537 14.281 24.6416C14.7246 23.6315 13.7824 22.571 12.7002 22.9128C12.3007 23.0389 11.8618 23.5269 11.8618 23.9802Z" fill="#AB84BB"/>
</svg>
