<svg width="32" height="32" viewBox="0 0 32 32" id="img" xmlns="http://www.w3.org/2000/svg" fill="currentColor">
<path d="M19.4587 19.524L18.4785 19.4362C17.7055 19.3085 17.0446 19.0688 16.4582 18.5756L16.2443 18.3661C16.2379 18.3575 16.174 18.3418 16.2221 18.2937C16.2596 18.2562 16.6683 18.5201 16.7403 18.5524C17.4778 18.883 17.9075 18.9142 18.6276 18.9918C19.1122 19.0441 19.7754 19.0018 20.299 18.9712C20.7263 18.9463 21.3684 18.8371 21.7913 18.7493C23.0674 18.4845 24.2961 18.0434 25.4356 17.4734C26.3495 17.0163 26.6662 16.7048 26.9675 16.5453C26.9405 16.6465 26.9088 16.6633 26.8249 16.7264C26.2777 17.138 26.131 17.2834 25.4449 17.6771C24.2722 18.3501 22.9538 18.8593 21.6207 19.1938C21.0855 19.328 20.0033 19.524 19.4587 19.524ZM24.1841 15.8329C23.9843 15.8329 23.8637 15.7844 23.7427 15.6917C23.3753 15.4102 23.4718 14.6026 24.1517 14.6026C24.9655 14.6026 24.9182 15.8329 24.1841 15.8329ZM13.9241 15.2178C12.3799 15.2178 11.076 13.9163 11.076 12.5627C11.076 11.7773 11.1423 11.2441 11.6686 10.5977C12.7865 9.22456 14.7032 9.1233 16.0041 10.4172C16.1808 10.5929 16.3078 10.808 16.4354 11.0218C16.5565 11.2247 16.6583 11.5499 16.7112 11.8145C16.8241 12.3789 16.7504 13.0637 16.503 13.5561C16.3832 13.7948 16.2695 14.0025 16.1011 14.1901C15.5505 14.8035 14.883 15.2178 13.9241 15.2178ZM3.82604 24.4132L3.0106 23.0596C2.22224 21.7576 1.58094 19.6122 1.37161 18.1264C1.19103 16.8451 1.16741 15.3716 1.34785 14.0661C1.49507 13.0013 1.80969 11.5477 2.25093 10.5661C2.36867 10.3042 2.45125 10.0774 2.57491 9.82176C2.81247 9.33068 3.05273 8.84722 3.33442 8.37984C4.06116 7.1741 4.80493 6.30019 5.77577 5.31783C6.25214 4.83582 7.04937 4.22741 7.58022 3.85278C10.7084 1.64514 14.4675 0.874531 18.1872 1.3691C18.7561 1.44471 19.4477 1.59764 19.9728 1.75218C20.5649 1.92649 21.0563 2.09056 21.6134 2.3127C22.3781 2.61764 23.1199 2.98495 23.7957 3.43208C24.4425 3.86001 25.1005 4.29993 25.6805 4.81679L26.5173 5.59855C27.1571 6.259 27.7561 6.96564 28.269 7.73159C28.7131 8.39496 29.1122 9.0945 29.4491 9.82123C30.1407 11.3132 30.5856 12.948 30.7248 14.5998C30.9044 16.7325 30.6559 18.8413 30.0061 20.783C29.6549 21.8325 29.1621 22.8078 28.5999 23.7473C28.4552 23.989 28.313 24.1901 28.1652 24.4133L27.6978 25.0466C27.5308 25.2687 27.3878 25.4527 27.2019 25.6514C26.8499 26.0277 26.5241 26.4401 26.1318 26.7825L26.0084 26.8857C25.1966 27.5802 24.622 28.0814 23.6441 28.6649C22.1688 29.5453 20.597 30.1498 18.9109 30.5033C18.5261 30.5839 18.6183 30.5742 18.5585 29.9404C18.4995 29.3151 18.6291 28.4071 18.7402 27.9359C19.2526 25.7614 20.4179 23.9348 21.7749 22.1973L22.3958 21.4586C22.8949 20.9215 23.2882 20.4363 23.8524 19.8721L25.6451 18.1363C25.7232 18.0652 25.696 18.0551 25.7792 17.9791C26.6541 17.1806 27.4903 16.2069 27.7771 15.0239C27.8577 14.6915 27.8595 14.438 27.8408 14.0854C27.8269 13.8243 27.6952 13.4217 27.5933 13.2319C26.6613 11.4954 24.4803 11.0587 22.6911 10.4623C22.2246 10.3068 20.6764 9.7542 20.289 9.56277C20.0716 9.4554 20.0913 8.87875 19.3038 8.34667C18.3554 7.70585 17.1987 7.81847 16.1219 8.09219C15.9906 8.12559 15.822 8.06378 15.6696 8.03213C13.3865 7.55817 12.0293 7.90503 9.82305 8.8486C8.80012 9.2861 7.88794 9.94806 7.1518 10.774C5.83627 12.2501 5.72069 14.3283 5.5715 16.1864C5.49332 17.16 5.40788 18.1461 5.26851 19.1539C5.13309 20.1331 4.98012 21.0932 4.72852 21.9487C4.66684 22.1584 4.05262 24.2471 3.82604 24.4132ZM0.00688304 15.2178C0.00688304 15.7853 -0.0182211 16.3783 0.0274571 16.9405C0.029133 16.9612 0.034093 17.0496 0.0441159 17.121C0.210496 18.306 0.169946 18.6623 0.517822 20.0166C0.73734 20.8713 1.15295 22.0505 1.53911 22.8156L2.01492 23.7642C2.75191 25.0428 3.00836 25.3361 3.98305 26.555L4.26455 26.8561C4.26461 26.8562 4.29369 26.8916 4.29373 26.8917L5.17584 27.7577C5.26894 27.8355 5.33062 27.9171 5.41964 27.9995L5.68464 28.22C6.18191 28.611 6.78158 29.1118 7.31999 29.4333C8.44919 30.1077 9.23308 30.5846 10.5132 31.0309C11.054 31.2194 12.1396 31.5609 12.7306 31.662C13.0187 31.7112 13.2527 31.7613 13.5539 31.8096C14.3198 31.9326 14.4245 31.9097 15.0477 31.9632C15.0582 31.9642 15.1326 31.9742 15.1335 31.9743C15.3607 32.0099 16.6159 32.0082 16.8773 31.9711C16.8991 31.968 16.9598 31.96 17.0293 31.9579C17.1674 31.9537 17.2389 31.9577 17.3687 31.9387L18.0405 31.8661C18.5094 31.8088 18.8774 31.7392 19.3158 31.6525C20.537 31.4107 22.01 30.8953 23.1377 30.3277C24.0553 29.8657 24.6179 29.4954 25.4461 28.9135C25.5864 28.815 25.7063 28.716 25.8487 28.604C25.9939 28.4898 26.128 28.3912 26.2627 28.2734L27.0459 27.5675C27.3368 27.3428 27.528 27.0725 27.7848 26.8173C28.5899 26.0172 29.3891 24.7828 29.9639 23.8167C30.0168 23.7278 30.0354 23.6738 30.0883 23.585C30.3283 23.1829 30.5104 22.7477 30.7006 22.3196C32.3308 18.6507 32.4817 14.1404 30.8423 10.014C30.286 8.61407 29.3023 6.92589 28.352 5.83528C28.2837 5.75684 28.2652 5.7216 28.1893 5.64191C28.1089 5.55742 28.0922 5.51377 28.0117 5.43105C27.4102 4.81294 27.1972 4.57421 26.5389 3.95797C25.371 2.86453 23.5003 1.76606 21.9647 1.15176C20.7714 0.674424 19.168 0.23696 17.8351 0.102404C16.8133 -0.000756278 16.8033 1.58016e-07 15.7043 1.58016e-07C14.4161 1.58016e-07 13.1 0.243437 11.8787 0.544009C10.4468 0.896327 8.95924 1.57016 7.72393 2.31286L6.39213 3.21468C6.31615 3.27172 6.25641 3.31465 6.18815 3.36676L5.58336 3.86257C5.50709 3.92674 5.48228 3.96863 5.39828 4.03359C5.30016 4.10953 5.27738 4.13237 5.19342 4.21719C4.92846 4.48472 4.68423 4.65965 4.44578 4.95868C4.33553 5.09695 4.19041 5.19932 4.08012 5.33759L3.08651 6.57769C2.88073 6.8563 2.67879 7.14297 2.4927 7.44065C2.19894 7.91059 1.64693 8.88098 1.44463 9.37094C1.36586 9.56182 1.29806 9.69904 1.21805 9.88902C0.712267 11.0899 0.288742 12.6816 0.139056 13.9901C0.110466 14.2402 0.0828934 14.4101 0.0732649 14.6017C0.0652465 14.7619 0.0527926 14.7845 0.0370846 14.9263C0.0293949 14.9957 0.028737 15.0368 0.0257466 15.0698C0.0186813 15.1487 0.00688304 15.1188 0.00688304 15.2178Z" fill="currentColor"/>
<path d="M11.8853 12.3361C11.8853 14.1113 13.9036 15.0853 15.2915 13.8657C16.4295 12.8657 16.0006 10.8291 14.4108 10.4246C14.3355 10.4054 14.2932 10.3984 14.1937 10.3862C14.033 10.3665 13.9414 10.3405 13.7291 10.3725C13.1311 10.4627 12.6044 10.7131 12.2596 11.2211C12.2016 11.3067 12.1184 11.4434 12.0793 11.5265C11.9955 11.705 11.8853 12.0783 11.8853 12.3361Z" fill="currentColor"/>
</svg>
