<svg width="32" height="35" viewBox="0 0 32 35" xmlns="http://www.w3.org/2000/svg">
<path fill-rule="evenodd" clip-rule="evenodd" d="M27.7147 13.4668V21.5332C27.7147 21.765 27.5425 21.7283 27.3186 21.8307C26.8428 22.0482 26.3794 22.4578 26.0862 22.8855C25.6513 23.5196 25.5919 23.7902 25.5068 24.5128C25.3824 25.5677 26.2222 24.8772 23.7571 26.2895L18.1752 29.4629C17.128 28.7794 16.9611 28.711 15.7202 28.711C15.2186 28.711 14.6842 28.9314 14.2931 29.1658C14.1208 29.269 14.0278 29.3516 13.8965 29.4629C13.5754 29.2974 13.3048 29.1233 12.963 28.9371C12.6259 28.7535 12.3705 28.5966 12.0267 28.4141L6.86752 25.5123C6.22235 25.1499 6.54519 25.3124 6.47108 24.4003C6.41901 23.7601 6.24252 23.356 5.88773 22.8441C5.6109 22.4448 5.17073 22.0706 4.73038 21.8529C4.5008 21.7393 4.28685 21.767 4.28685 21.5332V13.4668C4.28685 13.2151 4.48341 13.3244 5.11616 12.9078C5.97374 12.3432 6.45477 11.3998 6.4929 10.3712C6.51392 9.80376 6.24586 9.83716 6.82332 9.51304L12.9181 6.08755C13.2487 5.90203 13.5704 5.70523 13.8965 5.53709C14.6854 6.20538 15.2699 6.28904 16.2814 6.28904C17.0585 6.28904 17.6999 5.8473 18.1752 5.53709C18.234 5.5869 18.2911 5.63676 18.3707 5.68839L20.4594 6.86578C20.6508 6.97875 20.758 7.02717 20.9511 7.13849L25.1341 9.4877C25.9837 9.96494 25.2243 9.80785 25.5987 11.0857C25.8039 11.786 26.2066 12.4377 26.8017 12.8527C26.9296 12.942 27.1123 13.0686 27.2712 13.1471C27.5008 13.2607 27.7147 13.2329 27.7147 13.4668ZM15.8716 0H16.1599C17.061 0.0374371 17.9349 0.420254 18.4976 1.12145C19.2758 2.09128 19.2274 2.62717 19.2274 3.75977C19.8635 4.08782 20.4476 4.46302 21.0972 4.80862C21.7398 5.15052 22.2745 5.48988 22.9209 5.83399L26.5925 7.92969C27.0857 7.60784 27.6703 7.17775 28.4864 7.17775C29.1971 7.17775 29.518 7.16296 30.1482 7.47223C30.453 7.62181 30.8531 7.85869 31.0665 8.08116C32.2457 9.31051 32.3034 10.9922 31.2641 12.3458C30.6419 13.156 29.8191 13.124 29.8191 13.4668V21.5332C29.8191 21.7759 30.4125 21.9409 30.6023 22.0688C32.2861 23.2029 32.4665 25.5472 31.0321 26.9536C30.5668 27.4098 29.6815 27.8222 28.9072 27.8222C27.7246 27.8222 27.5222 27.677 26.5925 27.0703L26.1233 27.365C23.9725 28.5218 21.266 30.189 19.2274 31.2402C19.2274 32.384 19.2629 32.9566 18.467 33.9171C17.8891 34.6145 16.9993 34.9761 16.0979 35H15.9015C14.9876 34.9744 14.0842 34.6016 13.504 33.8785C12.7258 32.9087 12.7742 32.3728 12.7742 31.2402C11.1837 30.42 8.902 29.0378 7.21121 28.1168L5.44909 27.0997C5.44308 27.0793 5.42171 27.081 5.40914 27.0703C4.47938 27.677 4.277 27.8222 3.09437 27.8222C0.814508 27.8222 -1.10489 25.0535 0.737512 22.6542C0.915589 22.4224 1.18721 22.2024 1.44075 22.0408C1.64206 21.9124 2.18252 21.7794 2.18252 21.5332V13.4668C2.18252 13.2241 1.58914 13.0591 1.39933 12.9312C1.15633 12.7676 0.919045 12.5822 0.737512 12.3458C-0.040233 11.3329 -0.248281 10.0869 0.333088 8.93006C0.590712 8.41743 0.830998 8.16337 1.20919 7.86979L1.90059 7.44986C2.23288 7.28891 2.59125 7.17775 3.09437 7.17775C4.277 7.17775 4.47938 7.32297 5.40914 7.92969L5.87832 7.63501C8.02748 6.47904 10.7386 4.8095 12.7742 3.75977C12.7742 3.10021 12.732 2.66962 12.9042 2.17748C13.403 0.751997 14.6347 0.0498056 15.8716 0Z" fill="#ffffff"/>
<path fill-rule="evenodd" clip-rule="evenodd" d="M17.0527 17.9102V25.9766C17.3612 25.9066 17.6476 25.6853 17.9241 25.5269L20.5139 24.086C21.7106 23.4489 22.808 22.7616 23.997 22.1484V14.082C23.7674 14.1342 23.3518 14.401 23.1254 14.5314L17.0527 17.9102Z" fill="#ffffff"/>
<path fill-rule="evenodd" clip-rule="evenodd" d="M8.00439 22.1484L11.4414 24.0625C11.9859 24.3498 14.6305 25.9044 14.9486 25.9766V17.9102C14.3651 17.6092 13.8367 17.2973 13.2436 16.9742L8.91993 14.557C8.70435 14.4361 8.24893 14.1376 8.00439 14.082V22.1484Z" fill="#ffffff"/>
<path fill-rule="evenodd" clip-rule="evenodd" d="M9.05664 12.2362C9.26214 12.5095 12.1331 14.0218 12.4901 14.2221C13.0628 14.5435 13.6378 14.8533 14.2252 15.1972C14.5349 15.3786 14.7945 15.5294 15.1131 15.699C15.4247 15.8649 15.7312 16.025 16.0009 16.201L21.2131 13.2826C21.5219 13.1145 22.7997 12.4296 22.9451 12.2362C22.7264 12.1865 22.2891 11.9151 22.0728 11.7875L16.0009 8.43896L10.8139 11.2827C10.5394 11.4367 10.2514 11.5977 9.97258 11.7616C9.77297 11.8788 9.28594 12.1841 9.05664 12.2362Z" fill="#ffffff"/>
</svg>
