<svg width="31" height="31" viewBox="0 0 31 31" xmlns="http://www.w3.org/2000/svg" id="img">
<path fill-rule="evenodd" clip-rule="evenodd" d="M0 0.75607V4.33037C0 5.29417 1.77944 5.08644 2.44957 5.08644C2.23215 5.40431 2.19826 7.70649 2.62231 8.12706C2.79736 8.30061 3.23149 8.52329 3.62527 8.52329H13.6192V10.9977H6.95657C6.27423 10.9977 5.78085 11.4645 5.78085 11.9601V18.9711C5.78085 19.2913 6.07839 19.796 6.46673 19.796H14.0112V22.4767H3.62527C2.65075 22.4767 2.35615 23.1576 2.34748 23.7798C2.33991 24.3265 2.18654 25.529 2.44957 25.9135C1.91665 25.9135 1.21353 25.8495 0.748106 25.9572C0.34292 26.0509 0 26.3296 0 26.6696V30.2439C0 30.613 0.551684 31 1.07784 31H6.17272C6.69888 31 7.25056 30.613 7.25056 30.2439V26.6696C7.25056 25.7583 5.70911 25.9135 4.89904 25.9135V24.1951H14.2071V25.7073C14.2071 25.9701 14.1771 25.7323 14.3051 25.9135C11.314 25.9135 11.8556 25.7341 11.8556 30.2439C11.8556 30.613 12.4073 31 12.9334 31H18.0284C18.5545 31 19.1061 30.613 19.1061 30.2439V26.6696C19.1061 25.7058 17.3267 25.9135 16.6566 25.9135C16.8637 25.655 16.7546 24.5545 16.7546 24.1951H26.0628V25.9135C23.177 25.9135 23.7112 25.7926 23.7112 30.2439C23.7112 30.613 24.2628 31 24.789 31H29.884C30.41 31 30.9617 30.613 30.9617 30.2439V26.6696C30.9617 25.7058 29.1823 25.9135 28.5123 25.9135C28.7753 25.529 28.6218 24.3265 28.6143 23.7798C28.6056 23.1576 28.311 22.4767 27.3364 22.4767H16.8526V19.796H23.6132C24.0458 19.796 24.3971 19.2673 24.3971 18.9024V12.0288C24.3971 11.4484 23.8584 10.9977 23.0254 10.9977H16.9505V8.52329H27.3364C28.311 8.52329 28.6056 7.84232 28.6143 7.22009C28.6218 6.67339 28.7753 5.47091 28.5123 5.08644C31.5032 5.08644 30.9617 5.26587 30.9617 0.75607C30.9617 0.386955 30.41 0 29.884 0H24.789C24.2628 0 23.7112 0.386955 23.7112 0.75607V4.33037C23.7112 5.24158 25.2526 5.08644 26.0628 5.08644V6.80483H16.7546V5.29262C16.7546 5.02981 16.7847 5.26763 16.6566 5.08644C19.6477 5.08644 19.1061 5.26587 19.1061 0.75607C19.1061 0.386955 18.5545 0 18.0284 0H12.9334C12.4073 0 11.8556 0.386955 11.8556 0.75607V4.33037C11.8556 5.29417 13.6351 5.08644 14.3051 5.08644C14.0981 5.34492 14.2071 6.44541 14.2071 6.80483H4.89904V5.08644C7.78469 5.08644 7.25056 5.20726 7.25056 0.75607C7.25056 0.386955 6.69888 0 6.17272 0H1.07784C0.551684 0 0 0.386955 0 0.75607Z" fill="#ffffff"/>
</svg>
