<svg width="38" height="35" viewBox="0 0 38 35" xmlns="http://www.w3.org/2000/svg">
<path fill-rule="evenodd" clip-rule="evenodd" d="M8.16408 15.8627C8.16408 14.173 10.0718 14.5835 11.0586 14.5835C12.3945 14.5835 13.7304 14.5835 15.0664 14.5835C15.1761 16.0987 15.1761 15.5413 15.0664 17.0567L9.1286 17.057C8.61527 17.0073 8.16408 16.4866 8.16408 15.8627ZM0 15.351C0 17.758 0.401545 19.5483 1.58161 21.2091C2.5047 22.5082 3.54266 23.5012 5.07381 24.1043C8.65196 25.5135 11.9785 23.6921 13.615 21.1882C14.243 20.2273 14.8426 18.9166 15.0204 17.6861C15.1115 17.0559 14.9209 17.1397 16.1054 17.1419L34.1406 17.142C33.9499 17.4693 32.5291 18.7832 32.2271 19.1221C31.589 19.8383 31.6412 21.4061 33.1016 21.4061C33.6037 21.4061 34.1808 20.5876 34.5117 20.2974L36.7164 18.0549C37.4329 17.3664 38 16.8393 38 15.6921C38 14.8916 37.4379 14.3396 37.0352 13.9864C36.4994 13.5167 34.9047 11.7273 34.1296 11.0142C33.8727 10.7778 33.5498 10.234 32.9531 10.234C32.4192 10.234 30.7771 11.332 32.8476 13.1696L34.0664 14.4981C28.5989 14.4981 23.1315 14.4981 17.664 14.4981C16.9948 14.4981 16.3248 14.4902 15.6558 14.5032C14.4802 14.526 15.5785 14.1399 14.1907 11.4961C12.4592 8.19769 9.28396 6.38037 5.84759 7.31632C4.4156 7.70639 3.22158 8.51004 2.19643 9.68765C2.15406 9.73635 2.12911 9.77111 2.0897 9.8209C2.00248 9.93106 1.96768 9.97373 1.87333 10.0839C0.871487 11.2532 0 13.6262 0 15.351Z" fill="#ffffff"/>
<path fill-rule="evenodd" clip-rule="evenodd" d="M11.5039 26.9496C11.5039 27.6089 11.9345 28.2289 12.4687 28.2289H27.2383C28.7072 28.2289 28.7072 25.6704 27.2383 25.6704H12.6172C11.9565 25.6704 11.5039 26.1905 11.5039 26.9496Z" fill="#ffffff"/>
<path fill-rule="evenodd" clip-rule="evenodd" d="M23.3047 6.82266H35.6993C36.9806 6.82266 36.9806 4.26416 35.6993 4.26416H23.3047C21.9857 4.26416 21.9857 6.82266 23.3047 6.82266Z" fill="#ffffff"/>
<path fill-rule="evenodd" clip-rule="evenodd" d="M14.25 1.27922C14.25 1.95152 14.7368 2.5585 15.3632 2.5585H24.9375C26.1988 2.5585 26.1988 0 24.9375 0H15.3632C14.7368 0 14.25 0.60699 14.25 1.27922Z" fill="#ffffff"/>
<path fill-rule="evenodd" clip-rule="evenodd" d="M5.9375 31.0432C5.9375 31.8713 6.29894 32.4931 6.90233 32.4931H13.3593C14.6784 32.4931 14.6784 29.9346 13.3593 29.9346H6.90233C6.44717 29.9346 5.9375 30.5203 5.9375 31.0432Z" fill="#ffffff"/>
<path fill-rule="evenodd" clip-rule="evenodd" d="M15.8086 31.2138C15.8086 32.8565 17.3642 32.493 18.7032 32.493C20.1641 32.493 20.1641 29.9345 18.7032 29.9345C17.3642 29.9345 15.8086 29.571 15.8086 31.2138Z" fill="#ffffff"/>
<path fill-rule="evenodd" clip-rule="evenodd" d="M16.2539 20.7238C16.2539 22.4357 17.8406 22.0884 19.1485 22.0884C20.6882 22.0884 20.4893 19.5298 19.2969 19.5298C18.3624 19.5298 17.0915 19.3477 16.6099 19.8536C16.4707 19.9998 16.2539 20.4428 16.2539 20.7238Z" fill="#ffffff"/>
<path fill-rule="evenodd" clip-rule="evenodd" d="M28.3516 2.5585H30.3554C31.6369 2.5585 31.6369 0 30.3554 0H28.3516C27.0326 0 27.0326 2.5585 28.3516 2.5585Z" fill="#ffffff"/>
<path fill-rule="evenodd" clip-rule="evenodd" d="M14.7695 7.93135C14.7695 9.66965 16.349 9.2959 17.664 9.2959C17.9865 9.2959 18.2449 9.15751 18.4213 8.97217C19.1021 8.25705 18.7754 6.73741 17.664 6.73741C16.764 6.73741 15.5992 6.5636 15.1255 7.06122C14.9863 7.20745 14.7695 7.65036 14.7695 7.93135Z" fill="#ffffff"/>
<path fill-rule="evenodd" clip-rule="evenodd" d="M23.8242 33.6017C23.8242 35.34 25.4036 34.9663 26.7187 34.9663C28.1885 34.9663 28.1921 32.4078 26.7187 32.4078C25.8186 32.4078 24.6538 32.2341 24.1802 32.7316C24.041 32.8778 23.8242 33.3207 23.8242 33.6017Z" fill="#ffffff"/>
</svg>
