<svg width="35" height="35" viewBox="0 0 35 35" fill="none" xmlns="http://www.w3.org/2000/svg">
<mask id="mask0_247_705" style="mask-type:alpha" maskUnits="userSpaceOnUse" x="0" y="0" width="35" height="35">
<rect width="35" height="35" fill="#D9D9D9"/>
</mask>
<g mask="url(#mask0_247_705)">
<path d="M8.02067 32.0833C6.61095 32.0833 5.40782 31.585 4.4113 30.5885C3.41477 29.592 2.9165 28.3888 2.9165 26.9791C2.9165 25.5694 3.41477 24.3663 4.4113 23.3698C5.40782 22.3732 6.61095 21.875 8.02067 21.875C8.45817 21.875 8.88352 21.9296 9.29671 22.039C9.70991 22.1484 10.0988 22.3003 10.4634 22.4948L16.0415 16.9166V12.9062C14.9721 12.5902 14.0971 11.9887 13.4165 11.1015C12.7359 10.2144 12.3957 9.18746 12.3957 8.02079C12.3957 6.61107 12.8939 5.40795 13.8905 4.41142C14.887 3.41489 16.0901 2.91663 17.4998 2.91663C18.9096 2.91663 20.1127 3.41489 21.1092 4.41142C22.1057 5.40795 22.604 6.61107 22.604 8.02079C22.604 9.18746 22.2637 10.2144 21.5832 11.1015C20.9026 11.9887 20.0276 12.5902 18.9582 12.9062V16.9166L24.5728 22.4948C24.9373 22.3003 25.3201 22.1484 25.7212 22.039C26.1222 21.9296 26.5415 21.875 26.979 21.875C28.3887 21.875 29.5919 22.3732 30.5884 23.3698C31.5849 24.3663 32.0832 25.5694 32.0832 26.9791C32.0832 28.3888 31.5849 29.592 30.5884 30.5885C29.5919 31.585 28.3887 32.0833 26.979 32.0833C25.5693 32.0833 24.3662 31.585 23.3696 30.5885C22.3731 29.592 21.8748 28.3888 21.8748 26.9791C21.8748 26.5416 21.9295 26.1163 22.0389 25.7031C22.1483 25.2899 22.3002 24.901 22.4946 24.5364L17.4998 19.5416L12.505 24.5364C12.6995 24.901 12.8514 25.2899 12.9608 25.7031C13.0701 26.1163 13.1248 26.5416 13.1248 26.9791C13.1248 28.3888 12.6266 29.592 11.63 30.5885C10.6335 31.585 9.43039 32.0833 8.02067 32.0833ZM26.979 29.1666C27.5866 29.1666 28.1031 28.954 28.5285 28.5286C28.9538 28.1033 29.1665 27.5868 29.1665 26.9791C29.1665 26.3715 28.9538 25.855 28.5285 25.4296C28.1031 25.0043 27.5866 24.7916 26.979 24.7916C26.3714 24.7916 25.8549 25.0043 25.4295 25.4296C25.0042 25.855 24.7915 26.3715 24.7915 26.9791C24.7915 27.5868 25.0042 28.1033 25.4295 28.5286C25.8549 28.954 26.3714 29.1666 26.979 29.1666ZM17.4998 10.2083C18.1075 10.2083 18.624 9.99562 19.0493 9.57027C19.4747 9.14492 19.6873 8.62843 19.6873 8.02079C19.6873 7.41315 19.4747 6.89666 19.0493 6.47131C18.624 6.04597 18.1075 5.83329 17.4998 5.83329C16.8922 5.83329 16.3757 6.04597 15.9504 6.47131C15.525 6.89666 15.3123 7.41315 15.3123 8.02079C15.3123 8.62843 15.525 9.14492 15.9504 9.57027C16.3757 9.99562 16.8922 10.2083 17.4998 10.2083ZM8.02067 29.1666C8.62831 29.1666 9.1448 28.954 9.57015 28.5286C9.9955 28.1033 10.2082 27.5868 10.2082 26.9791C10.2082 26.3715 9.9955 25.855 9.57015 25.4296C9.1448 25.0043 8.62831 24.7916 8.02067 24.7916C7.41303 24.7916 6.89654 25.0043 6.47119 25.4296C6.04584 25.855 5.83317 26.3715 5.83317 26.9791C5.83317 27.5868 6.04584 28.1033 6.47119 28.5286C6.89654 28.954 7.41303 29.1666 8.02067 29.1666Z" fill="#AB84BB"/>
</g>
</svg>
