<svg width="35" height="36" viewBox="0 0 35 36" fill="none" xmlns="http://www.w3.org/2000/svg">
<path fill-rule="evenodd" clip-rule="evenodd" d="M7.10939 24.3357V12.5779C7.10939 12.3743 7.34646 12.3037 7.67971 12.1228L10.934 10.2502C11.3648 10.0021 11.792 9.75197 12.2328 9.49822C13.0894 9.00498 13.9616 8.46959 14.834 7.99783C18.2199 6.16678 16.9193 6.18573 18.8223 7.22246L27.2754 12.0994C27.4028 12.1681 27.5117 12.2294 27.6252 12.2965C27.7792 12.3876 27.8906 12.3751 27.8906 12.5779V24.3357C27.8906 24.5368 27.809 24.5048 27.6693 24.5929L25.3647 25.9114C25.1534 26.0323 24.9612 26.1647 24.7226 26.2947C23.9125 26.736 17.6757 30.4197 17.5 30.4197L7.37482 24.6172C7.22079 24.526 7.10939 24.5385 7.10939 24.3357ZM0 17.9099C0 19.9016 0.0267204 20.8558 0.51853 22.7918C0.664965 23.3683 0.836303 23.9111 1.01662 24.4128C1.54721 25.8888 2.37024 27.4272 3.27067 28.6529L4.20911 29.8336C4.95776 30.7918 6.54872 32.1572 7.62831 32.9086C8.0723 33.2176 8.48031 33.4347 8.94182 33.7142C10.1775 34.4627 12.2089 35.1918 13.6428 35.5074C15.897 36.0035 17.22 36.0164 19.4843 35.8221C20.1389 35.7658 20.7009 35.657 21.3015 35.52C24.5209 34.7849 27.3525 33.3162 29.6851 30.9837C30.2216 30.4471 30.7806 29.9237 31.231 29.3167C32.1981 28.013 32.5185 27.5784 33.3143 25.9996C34.1449 24.3519 35 21.5124 35 19.0721V17.8416C35 14.4159 33.5571 10.749 31.7293 8.26068C30.8479 7.06055 29.7568 5.90223 28.6215 4.94274C27.5943 4.07465 25.8398 2.97661 24.5999 2.4702C23.0248 1.82677 21.3525 1.24792 19.549 1.09531C15.9712 0.79269 13.7602 1.09768 10.4001 2.4702C9.03658 3.02713 7.55272 3.98617 6.41606 4.91194L4.22795 7.03047C4.05513 7.24516 3.9212 7.42382 3.74402 7.64028C3.57042 7.8525 3.41732 8.02918 3.2667 8.25671L2.43128 9.54047C1.08582 11.7877 0 14.8378 0 17.9099Z" fill="#AB84BB"/>
<path fill-rule="evenodd" clip-rule="evenodd" d="M18.5254 17.9099L22.1775 20C22.8036 20.3703 23.3922 20.7023 23.9977 21.0509C24.3428 21.2496 25.6136 22.0553 25.9082 22.0799V13.6033C25.6855 13.5438 25.2098 13.2335 24.981 13.0949C24.6567 12.8986 24.3801 12.7552 24.066 12.5743L20.3835 10.4463C20.0752 10.2597 19.7768 10.087 19.4789 9.91542C19.1595 9.73152 18.8222 9.56376 18.5254 9.36499V17.9099Z" fill="#AB84BB"/>
<path fill-rule="evenodd" clip-rule="evenodd" d="M9.0918 13.6033V22.0799C9.38241 22.0556 10.604 21.2737 10.9585 21.0755C11.5905 20.7224 12.1645 20.3797 12.7796 20.0255C13.3851 19.677 13.9738 19.3449 14.5998 18.9746C15.2456 18.5926 15.8228 18.2548 16.4746 17.9099V9.36499L15.1372 10.1468C14.9506 10.2598 14.8461 10.3082 14.6579 10.4195C14.4847 10.522 9.34318 13.5361 9.0918 13.6033Z" fill="#AB84BB"/>
<path fill-rule="evenodd" clip-rule="evenodd" d="M10.1855 23.9256C10.5047 24.0946 10.7772 24.2506 11.1033 24.4434L13.832 26.0213C14.3824 26.3212 17.3675 28.0956 17.4999 28.0956C17.6361 28.0956 19.8222 26.7864 20.2554 26.5443L24.8144 23.9256C24.6454 23.6732 23.3829 23.0244 23.0405 22.8285L17.4999 19.619C17.1871 19.7845 16.9233 19.9586 16.5902 20.1448L11.0873 23.3235C10.8036 23.4941 10.3475 23.6836 10.1855 23.9256Z" fill="#AB84BB"/>
</svg>
