<svg width="29" height="35" viewBox="0 0 29 35" xmlns="http://www.w3.org/2000/svg" id="img">
<path fill-rule="evenodd" clip-rule="evenodd" d="M6.41668 11.1007L7.86861 10.9858C8.29844 10.9303 8.92634 10.8969 9.33276 10.8816C9.71332 10.8673 10.3746 10.8199 10.7852 10.7672C11.1552 10.7197 11.9191 10.6635 12.2501 10.6635C12.3995 10.1022 14.2432 6.65139 14.4166 6.00028H14.5834C14.7575 6.65391 16.5971 10.0897 16.7499 10.6635C17.8829 10.6635 21.4789 11.0792 22.5833 11.1007C22.3937 11.3483 22.3255 11.3493 22.0712 11.5272C21.858 11.6764 21.781 11.7658 21.5353 11.933C21.1409 12.2013 20.7995 12.5279 20.429 12.7874L18.1667 14.4524C18.3186 14.7294 18.4117 15.3134 18.516 15.677L19.5 19.4072C19.0581 19.304 14.7779 16.8569 14.5 16.8569C14.3218 16.8569 12.3538 17.9478 12.0264 18.1187C11.7191 18.2788 9.78566 19.349 9.49999 19.4072L10.8333 14.4524C10.2587 14.1161 9.15063 13.159 8.63152 12.8073L6.97979 11.5556C6.7383 11.3586 6.60188 11.3425 6.41668 11.1007ZM10.3333 1.48267C9.29206 1.48267 7.85487 0.834745 6.35655 2.37734C5.65725 3.09725 5.8578 4.3355 3.96552 5.02279C3.48787 5.19628 3.09797 5.29615 2.73556 5.55038C0.947831 6.80471 1.66672 8.13956 1.66672 9.13336C1.66672 10.7655 0 10.8277 0 12.7037C0 14.0865 0.930024 14.4575 1.364 15.2271C1.96164 16.2869 1.50002 16.9592 1.50002 17.6584C1.50002 19.6971 3.4458 20.1197 4.28018 20.4737C4.79591 20.6925 5.07802 20.9361 5.39524 21.3203C5.71712 21.7102 5.77299 22.0767 6.02568 22.5179C6.29889 22.9948 6.5035 23.2067 6.97403 23.5103C7.42149 23.799 7.75126 23.913 8.40486 24.0113C9.88139 24.2336 10.4564 23.3146 12.4517 24.6956C15.3292 26.6872 16.6248 23.9247 18.5 23.9247C19.7854 23.9247 20.729 24.328 21.9786 23.5416C22.4174 23.2654 22.6683 23.0348 22.9183 22.6146C23.3384 21.9082 23.4035 21.0943 24.6084 20.522C25.0875 20.2944 25.5993 20.2179 26.048 19.9592C26.484 19.7078 26.7709 19.4734 27.0275 19.0669C28.2876 17.0713 26.3095 16.3882 28.1859 14.5421C28.7326 14.0041 29 13.4041 29 12.558C29 10.9004 27.3333 10.8188 27.3333 8.98767C27.3333 8.16536 28.0609 6.95337 26.3543 5.61756C25.2706 4.76937 24.2122 5.25374 23.2767 3.49955C23.0295 3.03594 23.0457 2.81463 22.6811 2.4173C20.6237 0.175478 19.1188 2.45697 16.7019 0.796193C16.3945 0.584963 16.2733 0.472934 15.9193 0.314567C14.5588 -0.293914 13.3959 0.0418744 12.2981 0.796193C11.7899 1.14547 11.194 1.48267 10.3333 1.48267Z" fill="#ffffff"/>
<path fill-rule="evenodd" clip-rule="evenodd" d="M20.1672 25.8192C18.9121 25.8192 18.7365 25.3637 17.8978 26.0209C17.391 26.418 16.4712 26.9326 15.7505 26.985L18.1672 35C18.7493 34.8641 22.0615 31.4296 22.5005 31.4296C23.0152 31.4296 27.5119 32.6147 28.2505 32.6683L25.9346 25.1481C25.8086 24.7149 25.6947 24.3322 25.5487 23.8826C25.4745 23.6543 25.4037 23.4503 25.3511 23.2538C25.2722 22.9587 25.3018 22.8257 25.0838 22.686C24.6303 24.3883 22.4788 25.8192 20.1672 25.8192Z" fill="#ffffff"/>
<path fill-rule="evenodd" clip-rule="evenodd" d="M0.75 32.6683C1.40394 32.6208 6.03653 31.4296 6.50002 31.4296C6.74872 31.4296 8.3622 32.9487 8.64584 33.1966C9.01911 33.523 10.4766 34.9167 10.8333 35C10.8625 34.6937 11.0129 34.3048 11.1128 34.0057C11.6496 32.3999 12.0817 30.6613 12.6371 28.9994C12.8623 28.3259 13.0727 27.6504 13.25 26.985C12.5294 26.9326 11.6095 26.418 11.1027 26.0209C10.264 25.3637 10.0884 25.8192 8.83333 25.8192C6.53777 25.8192 4.37211 24.3953 3.91667 22.686C3.67959 22.838 3.63726 23.3272 3.47056 23.8261L0.75 32.6683Z" fill="#ffffff"/>
</svg>
